<svg xmlns="http://www.w3.org/2000/svg" viewBox="0 0 1000 650">
  <rect width="1000" height="650" fill="#f1f5f9"/>
  <rect x="70" y="70" width="860" height="510" rx="8" fill="#ffffff" stroke="#475569" stroke-width="14"/>
  <path d="M70 300h860M350 70v230M650 70v230M500 300v280M70 450h430M650 300v280" fill="none" stroke="#64748b" stroke-width="10"/>
  <path d="M350 300v60a60 60 0 0 1-60-60M650 300v60a60 60 0 0 0 60-60M500 450h60a60 60 0 0 0-60 60" fill="none" stroke="#94a3b8" stroke-width="6"/>
  <g fill="#64748b" font-family="system-ui, sans-serif" font-size="24" text-anchor="middle">
    <text x="210" y="195">BEDROOM</text><text x="500" y="195">LIVING ROOM</text><text x="790" y="195">BEDROOM</text>
    <text x="285" y="395">KITCHEN</text><text x="715" y="395">BATHROOM</text><text x="285" y="530">DINING</text><text x="715" y="530">OFFICE</text>
  </g>
  <text x="500" y="625" fill="#94a3b8" font-family="system-ui, sans-serif" font-size="20" text-anchor="middle">DEFAULT FLOORPLAN — SET YOUR OWN IMAGE IN THE CARD EDITOR</text>
</svg>